<svg width="1200" height="1200" viewBox="0 0 1200 1200" fill="none" xmlns="http://www.w3.org/2000/svg">
<path d="M600 0C268.608 0 0 268.608 0 600C0 931.392 268.608 1200 600 1200C931.392 1200 1200 931.392 1200 600C1200 268.608 931.392 0 600 0ZM128.928 606.24L593.76 1071.07C338.496 1067.76 132.24 861.504 128.928 606.24ZM705.456 1059.31L140.688 494.544C188.592 285.12 376.032 128.832 600 128.832C756.528 128.832 895.248 205.2 980.928 322.704L915.696 380.256C846.192 280.608 730.704 215.376 600 215.376C433.584 215.376 291.84 321.072 238.272 469.008L730.992 961.68C850.656 918.336 942.672 817.344 973.488 692.256H769.296V600H1071.22C1071.17 823.968 914.88 1011.41 705.456 1059.31Z" fill="#8A75F0"/>
</svg>
