<svg width="1200" height="1200" viewBox="0 0 1200 1200" fill="none" xmlns="http://www.w3.org/2000/svg">
<g clip-path="url(#clip0)">
<path fill-rule="evenodd" clip-rule="evenodd" d="M706.572 5C697.897 5 689.84 6.86077 682.402 9.34019C698.209 19.8765 706.884 33.8227 711.224 49.6248C711.536 51.7973 712.155 53.3463 712.462 55.514C712.773 57.3748 713.085 59.2307 713.085 61.0915C714.322 88.3651 705.954 91.7701 700.065 107.889C691.077 128.654 693.557 150.964 704.405 168.939C705.335 171.107 706.572 173.586 708.126 175.754C696.348 97.3524 761.738 85.574 773.824 61.0915C774.754 39.7071 757.086 25.454 743.145 15.5363C729.813 7.47942 717.727 5 706.572 5ZM805.126 22.6629C803.879 29.7942 804.814 27.9334 804.502 31.6502C804.195 34.1296 804.195 37.2277 803.884 39.7071C803.265 42.1865 802.646 44.6659 801.716 47.1454C801.093 49.6248 800.167 52.1042 799.237 54.5836C797.995 57.063 797.069 59.2355 795.832 61.7101C794.896 62.9523 794.278 64.1896 793.347 65.4317L791.487 68.218C789.938 70.3905 788.389 72.5582 786.839 74.419C784.979 76.2797 783.435 78.4474 781.262 79.9965V80.3082C779.401 81.8572 777.545 83.7132 775.373 85.267C768.865 90.2211 761.427 93.9426 754.607 98.5897C752.439 100.139 750.272 101.381 748.411 103.242C746.243 104.791 744.382 106.34 742.526 108.196C740.354 110.056 738.805 111.917 736.944 114.085C735.395 115.946 733.539 118.113 732.297 120.286C730.748 122.454 729.199 124.621 727.957 126.794C726.72 129.273 725.789 131.441 724.552 133.92C723.622 136.4 722.691 138.572 722.072 141.047C721.245 143.6 720.52 146.185 719.9 148.797C719.593 150.034 719.593 151.583 719.281 152.825C718.97 154.063 718.97 155.305 718.663 156.542C718.663 159.021 718.351 161.813 718.351 164.292C718.351 166.148 718.351 168.009 718.663 169.869C718.663 172.349 718.974 174.828 719.593 177.615C719.905 180.094 720.523 182.573 721.142 185.053C722.072 187.532 722.691 190.012 723.622 192.486C724.245 194.04 725.171 195.589 725.789 196.831L654.514 169.246C642.429 165.841 630.65 162.738 618.565 159.952L599.041 155.3C580.392 151.582 561.569 148.79 542.643 146.936C542.02 146.936 541.708 146.624 541.089 146.624C522.496 144.764 504.21 143.838 485.616 143.838C471.982 143.838 458.348 144.457 445.02 145.387C426.115 146.624 407.21 149.104 388.31 152.202C383.658 152.825 379.006 153.751 374.364 154.681C364.753 156.542 355.459 158.71 346.471 160.882L332.525 164.599C327.873 166.46 323.538 168.627 319.198 170.488L308.973 175.14C308.35 175.447 307.731 175.447 307.424 175.754C304.326 177.303 301.535 178.545 298.744 180.094C297.818 180.406 297.195 180.718 296.576 181.024C293.171 182.574 289.761 184.429 286.97 185.983C284.802 186.914 282.63 188.151 280.774 189.081C279.844 189.705 278.601 190.323 277.983 190.63C275.192 192.179 272.405 193.729 269.926 195.282C267.135 196.827 264.655 198.38 262.488 199.929C260.32 201.478 258.147 202.716 256.291 204.265C255.98 204.577 255.668 204.577 255.361 204.888C253.5 206.126 251.333 207.675 249.472 209.224L248.848 209.847L244.206 213.564C243.583 213.871 242.959 214.494 242.345 214.801C240.796 216.043 239.247 217.592 237.693 218.83C237.387 219.453 236.768 219.76 236.456 220.072C234.595 221.932 232.739 223.477 230.879 225.337C230.567 225.337 230.567 225.649 230.255 225.961C228.399 227.51 226.538 229.366 224.678 231.227C224.371 231.538 224.371 231.85 224.059 231.85C222.434 233.428 220.883 235.081 219.412 236.804C218.788 237.428 217.863 238.046 217.244 238.665C215.695 240.526 213.834 242.382 211.974 244.242C211.662 244.866 211.043 245.173 210.736 245.792C208.257 248.271 206.084 250.75 203.605 253.23L202.679 254.16C197.721 259.426 192.45 264.697 186.873 269.344C181.378 274.247 175.581 278.8 169.517 282.978C163.507 287.193 157.302 291.124 150.923 294.756C144.598 298.226 138.08 301.331 131.4 304.056C124.809 306.855 118.087 309.336 111.257 311.489C98.2416 314.28 84.9141 319.546 73.4474 320.476C70.968 320.476 68.1817 321.1 65.7022 321.407C62.9111 322.03 60.4317 322.649 57.9523 323.267L50.5188 326.059C48.0346 326.984 45.5552 328.226 43.0757 329.464C40.908 331.013 38.4286 332.255 36.2609 333.804C34.0884 335.353 31.9207 337.209 30.06 339.074C27.8923 340.623 25.7246 342.791 23.8638 344.652C22.0031 346.82 20.1471 348.68 18.5933 350.848C17.0442 353.327 15.1882 355.5 13.9461 357.975C12.3971 360.147 10.8481 362.626 9.61075 365.106C8.36385 367.892 7.13133 370.372 6.20095 373.163C5.2227 375.832 4.29217 378.518 3.4098 381.22C2.79115 383.699 2.17249 386.178 1.86076 388.653C1.86076 388.97 1.54904 389.277 1.54904 389.588C0.930382 392.375 0.930383 396.096 0.618657 397.952C0.311727 400.125 0 401.981 0 404.153C0 405.39 2.85851e-07 406.939 0.311726 408.182C0.623452 410.349 0.935177 412.21 1.55383 414.071C2.17249 415.927 2.79115 417.788 3.72153 419.648V419.955C4.65191 421.816 5.88922 423.677 7.12654 425.538C8.37344 427.393 9.61075 429.254 11.155 431.115C12.7088 432.664 14.5696 434.52 16.4304 436.074C18.2863 437.93 20.1471 439.479 22.3148 441.033C29.753 447.541 31.6138 449.708 41.2198 454.667C42.7688 455.597 44.3178 456.216 46.1786 457.147C46.4903 457.147 46.7973 457.453 47.109 457.453C47.109 458.077 47.109 458.384 47.4159 459.007C47.7276 461.487 48.3463 463.966 48.9697 466.441C49.5596 468.992 50.3882 471.483 51.4444 473.879C52.3748 475.74 52.9982 477.601 53.9238 479.461C54.2355 480.08 54.5472 480.699 54.8542 481.01C56.0963 483.49 57.3336 485.657 58.5757 487.825L63.2228 494.333C64.7719 496.194 66.6278 498.361 68.4934 500.222C70.3493 502.083 72.2101 503.627 74.3778 505.493C74.3778 505.493 74.6895 505.8 75.0013 505.8C76.8572 507.349 78.718 508.903 80.5788 510.14C82.7465 511.689 84.9141 512.931 87.3936 514.168C89.5661 515.411 92.0455 516.648 94.5249 517.573C96.3809 518.509 98.5534 519.127 100.721 519.746C101.033 520.058 101.34 520.058 101.958 520.369C103.205 520.676 104.75 520.988 105.987 521.295C105.061 538.032 104.75 553.834 107.234 559.412C110.015 565.613 123.654 546.708 137.289 525.016C135.428 546.396 134.191 571.502 137.289 578.935C140.699 586.685 159.292 562.515 175.406 535.86C395.129 485.039 595.636 636.893 616.709 851.341C612.681 817.871 571.461 799.278 552.556 803.925C543.262 826.858 527.455 856.3 502.042 874.586C504.262 853.891 503.216 832.976 498.944 812.605C492.129 841.116 478.801 867.766 460.515 890.7C431.079 892.867 401.637 878.614 386.142 857.225C384.9 856.3 384.593 854.444 383.663 853.197C382.732 851.029 381.802 848.861 381.183 846.694C380.279 844.616 379.654 842.428 379.323 840.186C379.011 838.013 379.011 835.846 379.011 833.366V828.714C379.323 826.547 379.941 824.379 380.56 822.211C381.183 820.039 381.802 817.871 382.732 815.703C383.97 813.531 384.9 811.363 386.449 809.195C391.72 794.319 391.72 782.234 382.114 775.107C380.253 773.89 378.281 772.851 376.224 772.004C374.982 771.697 373.433 771.078 372.196 770.767C371.266 770.455 370.647 770.143 369.717 769.836C367.544 769.213 365.376 768.594 363.209 768.287C361.093 767.675 358.903 767.362 356.701 767.357C354.528 767.045 352.049 766.734 349.881 766.734C348.332 766.734 346.783 767.05 345.229 767.05C342.755 767.05 340.587 767.357 338.419 767.976C336.247 768.287 334.079 768.599 331.907 769.218C329.739 769.841 327.566 770.46 325.399 771.385C323.231 772.316 321.37 773.246 319.203 774.177C317.342 775.107 315.481 776.344 313.313 777.275C241.108 824.379 284.184 934.706 333.456 966.627C314.862 970.032 295.957 974.06 290.692 978.089L290.068 978.712C303.4 986.769 317.342 993.589 331.907 999.478C351.742 1005.98 372.815 1011.87 382.114 1014.35V1014.66C407.789 1019.93 434.045 1021.8 460.208 1020.24C597.492 1010.63 709.987 906.195 730.441 768.599C731.065 771.385 731.683 773.865 732.302 776.656C733.232 782.234 734.47 788.118 735.088 794.012V794.319C735.712 797.11 736.019 799.901 736.33 802.376V803.623C736.642 806.404 736.954 809.195 736.954 811.68C737.261 815.085 737.568 818.49 737.568 821.904V826.863C737.568 828.412 737.879 830.268 737.879 831.817C737.879 833.678 737.568 835.539 737.568 837.399V841.735C737.568 843.907 737.256 845.763 737.256 847.936C737.256 849.173 737.256 850.415 736.949 851.964C736.949 854.132 736.637 856.3 736.637 858.779C736.326 859.709 736.326 860.64 736.326 861.57C736.019 864.05 735.707 866.222 735.395 868.697C735.395 869.627 735.395 870.557 735.088 871.488C734.776 874.586 734.158 877.377 733.846 880.475V881.094C733.227 883.885 732.609 886.983 731.985 889.774V890.7L730.129 899.068C730.129 899.38 729.818 899.999 729.818 900.31C729.194 903.097 728.576 905.888 727.65 908.674V909.605C726.72 912.708 725.789 915.494 725.171 918.285C724.859 918.592 724.859 918.904 724.859 918.904L722.068 928.198C720.83 931.301 719.9 934.087 718.663 937.185C717.42 940.288 716.49 943.386 715.253 946.173C714.011 949.275 712.773 952.062 711.531 955.16H711.224C709.977 957.951 708.745 961.049 707.196 963.84C706.884 964.771 706.572 965.389 706.266 966.008C705.954 966.32 705.954 966.631 705.642 966.938C685.5 1007.53 655.752 1043.17 618.56 1071.06C616.081 1072.61 613.601 1074.47 611.127 1076.33C610.503 1076.95 609.573 1077.26 608.954 1077.88C606.787 1079.43 604.614 1080.98 602.139 1082.53L603.065 1084.39H603.377L616.393 1082.53H616.704C624.761 1081.29 632.818 1079.74 640.875 1078.19C643.043 1077.88 645.527 1077.26 647.695 1076.64C649.244 1076.33 650.481 1076.02 652.03 1075.71C654.203 1075.4 656.37 1074.78 658.538 1074.47C660.399 1073.85 662.259 1073.54 664.12 1072.93C695.11 1065.49 725.171 1055.26 753.993 1043.17C704.716 1110.42 638.703 1164.65 561.538 1200.29C597.181 1197.81 632.818 1191.93 667.218 1182.01C792.11 1145.13 897.167 1061.15 960.073 948.033C947.304 1019.78 918.839 1087.83 876.713 1147.3C906.745 1127.49 934.495 1104.42 959.454 1078.5C1028.87 1005.99 1074.43 913.945 1089.92 815.085C1100.49 864.13 1103.53 914.5 1098.91 964.459C1322.66 652.388 1117.5 328.85 1031.66 243.629C1031.35 243.005 1031.04 242.698 1031.04 242.08C1030.73 242.387 1030.73 242.387 1030.73 242.698C1030.73 242.387 1030.73 242.387 1030.42 242.075C1030.42 245.796 1030.11 249.513 1029.8 253.235C1028.87 260.361 1027.94 267.181 1026.7 274C1025.15 280.815 1023.3 287.635 1021.43 294.45C1019.23 301.16 1016.75 307.778 1014 314.285C1011.15 320.707 1008.05 327.014 1004.7 333.19C1001.29 339.074 997.571 345.275 993.543 350.853C989.556 356.617 985.316 362.202 980.834 367.59C976.187 373.168 971.233 378.126 966.274 383.08C963.355 385.752 960.358 388.337 957.286 390.83C954.807 392.998 952.635 394.859 950.155 397.027C944.578 401.367 939 405.395 932.804 409.112C926.915 412.833 920.719 416.55 914.518 419.653C908.01 422.751 901.502 425.538 894.999 428.329C888.486 430.808 881.667 432.981 874.852 434.837C867.999 436.682 861.071 438.234 854.086 439.488C846.959 440.726 839.833 441.344 833.013 441.963C828.055 442.275 823.096 442.587 818.137 442.587C811.01 442.587 803.884 441.963 797.064 441.34C789.938 440.726 782.811 439.795 775.991 438.246C768.865 436.999 762.045 435.143 755.226 432.976H754.919C761.738 432.352 768.553 431.734 775.373 430.496C782.364 429.275 789.294 427.722 796.139 425.844C802.954 424.004 809.676 421.834 816.281 419.341C823.096 416.862 829.604 413.764 835.8 410.661C842.312 407.563 848.202 404.153 854.398 400.436C860.287 396.408 866.171 392.379 871.754 388.039C877.305 383.723 882.583 379.065 887.556 374.093C892.826 369.441 897.473 364.175 902.121 358.91C906.651 353.483 910.992 347.9 915.136 342.172C915.76 341.247 916.378 340.005 916.997 339.074C920.095 334.115 923.193 329.157 925.984 324.198C929.393 318.055 932.496 311.747 935.283 305.298C938.082 298.811 940.563 292.191 942.717 285.462C944.889 278.954 946.438 272.135 947.987 265.32C949.23 258.193 950.467 251.374 951.086 244.554C951.709 237.428 952.328 230.301 952.328 223.482C952.328 218.523 952.016 213.564 951.704 208.605C951.09 201.478 950.16 194.664 949.23 187.839C948.008 180.849 946.455 173.921 944.578 167.078C942.41 160.57 940.242 153.756 937.763 147.248C935.283 140.74 932.185 134.232 929.082 128.031C925.677 121.835 922.268 115.639 918.546 109.75C914.591 103.942 910.459 98.2581 906.154 92.7053C901.487 87.3595 896.734 82.0899 891.896 76.8984C889.285 74.2398 886.599 71.657 883.839 69.1532C869.956 58.3712 855.582 48.2365 840.763 38.7815C838.596 37.5394 836.735 36.6138 834.562 35.6834C824.338 29.1755 814.732 25.7657 805.126 22.6677V22.6629Z" fill="#D74D42"/>
</g>
<defs>
<clipPath id="clip0">
<rect width="1200" height="1200" fill="white"/>
</clipPath>
</defs>
</svg>
