<svg width="1200" height="1200" viewBox="0 0 1200 1200" fill="none" xmlns="http://www.w3.org/2000/svg">
<path d="M685.083 395.579L643.944 467.953L503.218 220.375L71.2388 980.307H363.72C363.72 1020.28 395.618 1052.68 434.97 1052.68H71.2388C45.7881 1052.68 22.2674 1038.88 9.54206 1016.48C3.2874 1005.45 0 992.983 0 980.3C0 967.618 3.2874 955.153 9.54206 944.12L441.534 184.187C454.266 161.791 477.787 148 503.244 148C528.701 148 552.221 161.791 564.946 184.187L685.083 395.579Z" fill="#6AAF8C"/>
<path d="M996.926 944.12L726.237 467.953L685.084 395.579L643.944 467.953L373.281 944.12C360.555 966.509 360.549 994.098 373.281 1016.49C386.013 1038.88 409.52 1052.68 434.971 1052.68H935.145C960.602 1052.68 984.129 1038.89 996.861 1016.5C1009.59 994.111 1009.6 966.516 996.861 944.12H996.926ZM434.971 980.307L685.084 540.328L935.145 980.307H434.971Z" fill="#4D4D4D"/>
<path d="M1190.46 1016.49C1177.73 1038.88 1154.22 1052.68 1128.77 1052.68H935.146C974.498 1052.68 1006.4 1020.28 1006.4 980.307H1128.62L781.812 370.16L726.237 467.953L685.085 395.578L720.115 333.967C732.847 311.577 756.367 297.779 781.824 297.779C807.282 297.779 830.802 311.577 843.528 333.973L1190.45 944.113C1196.71 955.148 1200 967.618 1200 980.304C1200 992.99 1196.71 1005.46 1190.45 1016.49H1190.46Z" fill="#108775"/>
</svg>
