<svg width="1200" height="1200" viewBox="0 0 1200 1200" fill="none" xmlns="http://www.w3.org/2000/svg">
<path d="M711.537 600.448C711.537 662.183 661.49 712.229 599.755 712.229C538.02 712.229 487.974 662.183 487.974 600.448C487.974 538.712 538.02 488.666 599.755 488.666C661.49 488.666 711.537 538.712 711.537 600.448Z" fill="#7589F0"/>
<path fill-rule="evenodd" clip-rule="evenodd" d="M947.819 398.898C1100.45 445.617 1200 520.953 1200 600.448C1200 679.698 1100.94 755.034 949.287 801.752C984.753 956.828 969.344 1080.35 900.612 1119.97C884.468 1129.27 865.879 1133.67 845.332 1133.67C778.068 1133.67 690.012 1086.22 600.978 1003.55C511.945 1086.71 423.889 1134.65 356.625 1134.65C336.078 1134.65 317.489 1130.25 301.59 1120.95C232.613 1081.33 216.959 957.561 252.181 801.997C99.5516 755.278 0 679.942 0 600.448C0 521.198 99.0624 446.106 251.203 399.143C215.736 244.068 231.146 120.545 299.878 80.9205C316.021 71.6258 334.611 67.223 355.157 67.223V66.9784C422.422 66.9784 510.477 114.431 599.511 197.105C688.545 113.941 776.6 66 843.865 66V66.2448C864.071 66.2801 882.575 70.6847 898.41 79.9421C967.387 119.567 983.041 243.334 947.819 398.898ZM843.62 120.546C792.748 120.676 718.013 161.268 638.402 235.262C672.89 271.218 707.134 312.311 740.155 357.561C795.19 363.432 847.534 372.482 895.475 384.223C900.856 359.518 905.259 335.303 907.95 312.311C919.201 218.874 904.77 146.228 871.504 127.15C863.922 122.991 854.872 120.79 843.62 120.79V120.546ZM560.62 235.507C480.881 161.883 405.789 121.524 355.157 121.524V121.768C343.905 121.768 334.366 123.725 327.028 128.128C294.007 147.451 279.821 220.097 291.317 313.534C294.252 336.281 298.41 360.007 304.036 384.467C351.977 372.482 404.321 363.432 459.601 357.561C492.132 312.311 526.376 271.463 560.62 235.507ZM848.512 533.917C861.231 501.385 872.483 468.854 881.533 437.3C849.49 429.473 815.981 423.114 781.248 417.977C793.233 436.567 805.218 455.645 816.47 475.213C827.966 494.781 838.484 514.349 848.512 533.917ZM710.559 791.234C730.86 762.127 750.428 730.819 769.507 697.798C787.852 665.755 804.729 632.979 820.139 600.203C804.729 567.427 787.852 534.895 769.262 502.853C750.184 470.077 730.371 439.013 710.069 409.905C673.869 406.97 636.934 405.258 600 405.258C562.821 405.258 525.887 406.97 489.442 410.15C469.14 439.257 449.572 470.566 430.493 503.587C412.148 535.629 395.027 568.405 379.861 601.181C395.271 633.958 412.148 666.489 430.738 698.532C449.817 731.308 469.629 762.372 489.931 791.479C526.131 794.414 563.066 796.126 600 796.126C637.179 796.126 674.113 794.414 710.559 791.234ZM882.267 763.35C872.972 731.552 861.72 698.776 848.512 666C838.484 685.568 827.966 705.38 816.714 724.948C805.463 744.761 793.477 764.084 781.492 782.918C816.47 777.782 850.224 771.177 882.267 763.35ZM532.491 848.715C554.994 877.333 577.742 903.505 600.489 926.987C622.992 903.505 645.74 877.333 667.754 848.715C645.495 849.938 622.748 850.427 599.755 850.427C577.008 850.427 554.505 849.693 532.491 848.715ZM318.223 763.595C350.265 771.422 383.775 777.782 418.508 782.918C406.523 764.329 394.782 745.25 383.286 725.682C371.79 706.114 361.272 686.546 351.243 666.978C338.524 699.51 327.273 732.042 318.223 763.595ZM667.265 352.18C644.762 323.562 622.014 297.39 599.266 273.909C576.763 297.39 554.016 323.562 532.002 352.18C554.26 350.957 577.008 350.468 600 350.468C622.748 350.468 645.251 351.202 667.265 352.18ZM383.041 475.947C394.293 456.135 406.278 436.811 418.263 417.977C383.286 423.114 349.531 429.718 317.489 437.3C326.784 469.098 338.035 501.874 351.243 534.651C361.272 515.083 371.79 495.515 383.041 475.947ZM54.3009 600.448C54.3009 638.85 110.314 687.28 196.902 724.214C218.182 733.265 241.174 741.581 265.389 749.163C279.087 701.467 297.187 651.813 319.69 600.937C296.943 549.816 278.598 499.918 264.656 451.976C240.929 459.559 217.937 467.631 196.902 476.681C110.314 513.371 54.3009 562.046 54.3009 600.448ZM292.051 888.585C280.799 982.021 295.23 1054.67 328.496 1073.75C335.834 1077.9 345.128 1080.11 356.135 1080.35C407.012 1080.35 481.859 1039.75 561.598 965.633C527.11 929.677 492.866 888.585 459.845 843.334C404.811 837.464 352.466 828.413 304.525 816.673C299.144 841.377 294.741 865.592 292.051 888.585ZM872.972 1072.77C905.993 1053.44 920.18 980.798 908.683 887.362C905.993 864.614 901.59 840.888 895.964 816.183C848.023 828.169 795.679 837.219 740.4 843.089C707.868 888.34 673.624 929.188 639.38 965.144C719.12 1038.77 794.211 1079.13 844.843 1079.13C856.095 1079.13 865.634 1077.17 872.972 1072.77ZM935.1 748.919C958.826 741.336 981.818 733.265 1002.85 724.214C1089.44 687.525 1145.45 638.85 1145.7 600.448C1145.7 562.046 1089.69 513.615 1003.1 476.681C981.574 467.631 958.581 459.314 934.366 451.732C920.669 499.428 902.568 549.082 880.065 599.958C902.813 651.08 921.158 700.978 935.1 748.919Z" fill="#7589F0"/>
</svg>
