<svg width="1200" height="1200" viewBox="0 0 1200 1200" fill="none" xmlns="http://www.w3.org/2000/svg">
<path d="M1033.02 666.512C991.061 666.749 954.729 676.826 924.258 691.829C913.007 669.562 901.756 650.105 899.883 635.575C897.774 618.698 895.195 608.382 897.774 588.227C900.35 568.066 912.069 539.47 912.069 537.126C911.833 535.017 909.489 524.703 885.348 524.469C861.208 524.234 840.344 529.157 838 535.485C835.656 541.814 830.969 556.347 827.921 571.348C823.702 593.381 779.636 671.435 754.556 712.454C746.352 696.515 739.32 682.451 737.911 671.198C735.804 654.324 733.223 644.008 735.804 623.852C738.382 603.692 750.102 575.098 750.102 572.754C749.868 570.645 747.524 560.331 723.383 560.097C699.238 559.862 678.38 564.785 676.036 571.113C673.692 577.442 671.113 592.443 665.957 606.976C661.032 621.508 602.433 751.832 587.197 785.82C579.462 803.165 572.667 816.994 567.742 826.37C562.82 835.746 567.508 827.073 567.039 828.011C562.82 835.98 560.476 840.434 560.476 840.434V840.671C557.195 846.53 553.679 852.154 552.036 852.154C550.864 852.154 548.52 836.449 552.504 814.887C561.177 769.646 582.273 699.096 582.041 696.517C582.041 695.345 586.023 682.92 568.443 676.594C551.332 670.265 545.241 680.813 543.832 680.813C542.425 680.813 541.253 684.563 541.253 684.563C541.253 684.563 560.24 605.105 504.922 605.105C470.232 605.105 422.415 642.843 398.741 677.299C383.74 685.503 351.862 702.846 318.109 721.366C305.217 728.397 291.857 735.898 279.199 742.696L276.623 739.878C209.586 668.388 85.5911 617.758 90.7478 521.656C92.6229 486.731 104.811 394.614 328.896 283.041C512.428 191.627 659.393 216.708 684.94 272.494C721.272 352.188 606.418 500.326 415.622 521.656C342.96 529.86 304.751 501.732 295.143 491.185C285.064 480.168 283.658 479.699 279.907 481.809C273.813 485.09 277.563 494.935 279.907 500.795C285.533 515.562 308.972 541.814 348.819 554.94C383.742 566.426 469.064 572.754 572.198 532.907C687.755 488.137 777.998 363.908 751.511 260.071C724.555 154.358 549.228 119.668 383.51 178.501C284.827 213.66 177.943 268.509 101.061 340.468C9.64693 425.788 -4.88559 500.326 1.20869 531.266C22.541 641.666 174.661 713.626 235.604 766.834C232.557 768.472 229.744 770.113 227.166 771.522C196.695 786.521 80.6688 847.231 51.6037 911.453C18.7884 984.116 56.7604 1036.39 82.0751 1043.42C160.363 1065.22 240.526 1026.08 283.89 961.616C327.016 897.158 321.862 813.478 301.938 775.272L301.233 773.866L325.141 759.802C340.613 750.66 355.849 742.222 369.207 734.953C361.709 755.346 356.315 779.489 353.505 814.648C350.224 855.904 367.1 909.344 389.368 930.439C399.212 939.578 410.932 939.815 418.198 939.815C443.982 939.815 455.701 918.483 468.593 892.936C484.532 861.761 498.596 825.665 498.596 825.665C498.596 825.665 481.016 923.408 529.067 923.408C546.647 923.408 564.227 900.671 572.196 888.951V889.186C572.196 889.186 572.665 888.483 573.602 886.842C574.586 885.388 575.524 883.903 576.415 882.391V881.922C583.447 869.733 599.151 841.84 622.591 795.664C652.826 736.128 681.893 661.59 681.893 661.59C681.893 661.59 684.706 679.873 693.378 709.876C698.533 727.692 709.784 747.144 718.456 766.13C711.425 775.975 707.205 781.603 707.205 781.603L707.44 781.837C701.817 789.338 695.486 797.31 688.925 805.277C665.017 833.873 636.42 866.456 632.67 875.832C628.216 886.846 629.154 895.05 637.827 901.616C644.155 906.304 655.406 907.239 667.361 906.304C688.925 904.895 703.926 899.506 711.427 896.222C723.147 892.003 736.507 885.675 749.399 876.299C772.839 858.956 787.137 834.344 785.73 801.529C785.027 783.48 779.167 765.666 771.901 748.79C774.011 745.743 776.122 742.693 778.23 739.414C815.264 685.266 843.86 625.732 843.86 625.732C843.86 625.732 846.673 644.015 855.346 674.018C859.797 689.253 868.706 705.898 876.676 722.306C841.985 750.667 820.186 783.483 812.686 805.047C798.856 844.894 809.639 862.943 830.031 867.162C839.17 869.037 852.299 864.818 862.141 860.599C874.329 856.614 889.096 849.814 902.694 839.738C926.133 822.392 948.635 798.25 947.463 765.669C946.76 750.667 942.775 735.9 937.384 721.837C966.918 709.648 1005.12 702.616 1053.64 708.476C1157.95 720.665 1178.58 785.827 1174.59 813.017C1170.61 840.209 1148.81 855.208 1141.54 859.896C1134.28 864.349 1131.93 865.992 1132.64 869.271C1133.57 874.196 1136.85 873.959 1143.18 873.024C1151.86 871.615 1198.03 850.757 1199.91 800.598C1202.72 736.13 1141.54 665.812 1033.02 666.512ZM228.572 937.708C194.116 975.446 145.596 989.744 124.969 977.555C102.702 964.663 111.372 909.112 153.8 869.03C179.584 844.653 213.102 822.151 235.135 808.322C240.058 805.275 247.558 800.823 256.465 795.43C257.872 794.495 258.809 794.024 258.809 794.024C260.45 793.086 262.325 791.914 264.2 790.742C279.905 847.935 264.904 898.095 228.572 937.708ZM480.547 766.365C468.593 795.664 443.279 870.905 428.043 866.686C414.914 863.17 406.947 806.212 425.462 749.957C434.838 721.593 454.762 687.842 466.481 674.714C485.47 653.618 506.094 646.586 511.253 655.259C517.347 666.512 488.048 748.082 480.547 766.365ZM688.456 865.749C683.299 868.329 678.612 870.202 676.502 868.798C674.861 867.86 678.609 864.345 678.609 864.345C678.609 864.345 704.627 836.451 714.94 823.56C720.8 816.061 727.832 807.389 735.333 797.542V800.355C735.335 834.105 702.989 856.607 688.456 865.749ZM848.78 829.183C845.03 826.37 845.501 817.698 858.156 790.508C863.081 779.725 874.329 761.677 893.784 744.566C896.128 751.598 897.537 758.393 897.3 764.724C897.068 806.915 867.065 822.62 848.78 829.183Z" fill="#DB576D"/>
</svg>
