<svg width="1200" height="1200" viewBox="0 0 1200 1200" fill="none" xmlns="http://www.w3.org/2000/svg">
<path d="M1035.41 158.77C923.922 -0.712401 703.708 -47.9842 544.506 53.4098L264.921 231.54C246.112 243.358 228.566 257.099 212.602 272.543C196.617 287.986 182.296 305.052 169.857 323.46C157.418 341.868 146.922 361.518 138.529 382.089C130.157 402.67 123.941 424.063 119.981 445.926C116.676 464.254 114.873 482.842 114.633 501.47C114.372 520.119 115.674 538.747 118.499 557.155C121.323 575.583 125.67 593.751 131.478 611.457C137.287 629.164 144.558 646.35 153.211 662.856C147.259 671.902 141.763 681.241 136.746 690.838C131.719 700.433 127.192 710.288 123.166 720.343C119.14 730.398 115.634 740.654 112.65 751.07C109.665 761.485 107.222 772.041 105.299 782.698C97.3085 827.509 98.3641 873.466 108.403 917.863C113.411 939.996 120.602 961.589 129.896 982.301C139.19 1003.01 150.507 1022.76 163.727 1041.23C275.217 1200.71 495.411 1247.98 654.613 1146.59L934.198 969.201C953.006 957.363 970.513 943.602 986.477 928.138C1002.44 912.687 1016.76 895.624 1029.2 877.221C1041.64 858.833 1052.14 839.183 1060.53 818.612C1068.92 798.061 1075.15 776.668 1079.14 754.815C1082.44 736.487 1084.23 717.919 1084.47 699.291C1084.71 680.663 1083.4 662.034 1080.56 643.626C1077.74 625.218 1073.39 607.071 1067.56 589.364C1061.73 571.677 1054.46 554.491 1045.81 537.986C1051.76 528.952 1057.26 519.598 1062.29 510.003C1067.3 500.409 1071.85 490.554 1075.87 480.499C1079.9 470.443 1083.42 460.188 1086.43 449.772C1089.41 439.376 1091.9 428.82 1093.84 418.164C1097.81 395.81 1099.53 373.115 1099.01 350.421C1098.49 327.726 1095.7 305.152 1090.7 282.999C1085.69 260.865 1078.5 239.272 1069.2 218.561C1059.92 197.846 1048.6 178.105 1035.41 159.631" fill="#D74D42"/>
<path d="M517.184 1056.65C495.302 1062.34 472.681 1064.65 450.102 1063.5C427.528 1062.34 405.254 1057.78 384.062 1049.9C362.869 1042.04 342.998 1031 325.132 1017.15C307.282 1003.3 291.646 986.804 278.762 968.239C270.81 957.122 264 945.264 258.431 932.806C252.846 920.355 248.518 907.377 245.511 894.067C242.527 880.746 240.844 867.166 240.544 853.525C240.243 839.884 241.305 826.244 243.709 812.803C244.089 810.62 244.53 808.437 245.011 806.273C245.471 804.09 245.992 801.927 246.553 799.783C247.094 797.62 247.695 795.477 248.336 793.334C248.957 791.21 249.638 789.087 250.339 786.984L255.607 770.9L269.969 781.616C278.201 787.625 286.694 793.294 295.407 798.582C304.12 803.89 313.054 808.817 322.188 813.344C331.302 817.891 340.636 822.057 350.11 825.803C359.585 829.569 369.219 832.914 378.994 835.858L389.71 838.963L388.749 849.679C388.232 856.972 388.991 864.3 390.992 871.332C391.974 874.858 393.276 878.263 394.858 881.548C396.441 884.833 398.303 887.977 400.427 890.942C404.317 896.534 409.039 901.498 414.428 905.664C419.796 909.831 425.785 913.156 432.175 915.519C438.565 917.883 445.255 919.245 452.065 919.585C458.855 919.946 465.666 919.245 472.256 917.522C473.778 917.122 475.26 916.661 476.743 916.14C478.225 915.619 479.687 915.059 481.109 914.418C482.551 913.797 483.954 913.116 485.356 912.374C486.738 911.653 488.08 910.872 489.402 910.031L768.566 731.88C771.988 729.735 775.177 727.237 778.08 724.429C780.985 721.605 783.569 718.5 785.832 715.155C788.095 711.81 789.978 708.224 791.501 704.479C793.003 700.733 794.125 696.847 794.846 692.881C795.547 688.815 795.847 684.709 795.747 680.582C795.647 676.476 795.126 672.39 794.205 668.364C793.303 664.358 791.981 660.452 790.279 656.686C788.596 652.94 786.513 649.375 784.109 646.03C780.223 640.441 775.516 635.494 770.128 631.328C764.74 627.161 758.751 623.836 752.381 621.473C745.997 619.108 739.29 617.731 732.491 617.386C725.681 617.046 718.87 617.747 712.28 619.45C710.778 619.85 709.276 620.311 707.794 620.832C706.311 621.353 704.869 621.913 703.427 622.534C701.985 623.175 700.583 623.856 699.2 624.597C697.818 625.318 696.456 626.12 695.134 626.961L587.931 695.024C583.565 697.789 579.078 700.393 574.511 702.836C569.924 705.26 565.277 707.523 560.53 709.606C555.783 711.69 550.955 713.593 546.068 715.295C541.18 717.018 536.233 718.54 531.225 719.882C509.372 725.531 486.798 727.814 464.264 726.652C441.729 725.491 419.516 720.904 398.364 713.072C377.211 705.22 357.381 694.183 339.554 680.362C321.727 666.541 306.103 650.096 293.224 631.568C285.312 620.451 278.522 608.573 272.973 596.114C267.405 583.655 263.098 570.675 260.114 557.375C257.129 544.055 255.487 530.474 255.206 516.834C254.906 503.213 255.967 489.572 258.391 476.152C263.127 449.729 273.319 424.583 288.316 402.32C303.325 380.056 322.816 361.172 345.543 346.876L625.569 168.745C629.915 165.981 634.362 163.377 638.909 160.933C643.456 158.509 648.103 156.246 652.81 154.163C657.528 152.079 662.325 150.181 667.192 148.474C672.039 146.752 676.967 145.209 681.954 143.867C703.827 138.199 726.442 135.875 748.996 137.017C771.57 138.179 793.824 142.745 815.016 150.617C836.209 158.469 856.059 169.526 873.926 183.367C891.771 197.231 907.4 213.732 920.276 232.302C928.208 243.398 935.039 255.256 940.627 267.715C946.216 280.174 950.542 293.134 953.567 306.454C956.571 319.774 958.254 333.355 958.554 346.996C958.875 360.636 957.833 374.277 955.43 387.718C955.009 389.921 954.568 392.124 954.068 394.308C953.587 396.491 953.066 398.674 952.505 400.838C951.964 403.021 951.363 405.184 950.742 407.327C950.122 409.491 949.481 411.634 948.78 413.757L943.431 429.842L929.17 419.125C920.917 413.056 912.404 407.367 903.671 402.019C894.938 396.691 885.964 391.724 876.81 387.137C858.484 377.995 839.421 370.41 819.824 364.462L809.087 361.358L810.069 350.641C810.369 346.976 810.349 343.29 810.009 339.645C809.688 335.999 809.027 332.374 808.066 328.828C807.084 325.303 805.822 321.838 804.24 318.532C802.678 315.207 800.815 312.043 798.692 309.038C794.783 303.548 790.062 298.685 784.69 294.616C779.326 290.529 773.368 287.286 767.023 285.002C754.274 280.376 740.416 279.754 727.303 283.219C725.781 283.619 724.279 284.08 722.816 284.581C721.334 285.102 719.872 285.683 718.43 286.304C717.008 286.924 715.585 287.626 714.203 288.347C712.821 289.088 711.459 289.869 710.137 290.71L430.452 468.54C427.047 470.684 423.862 473.187 420.978 475.992C418.094 478.796 415.49 481.901 413.226 485.226C410.982 488.57 409.082 492.134 407.558 495.862C406.035 499.608 404.914 503.473 404.192 507.439C403.491 511.506 403.191 515.632 403.291 519.758C403.531 528.018 405.389 536.15 408.759 543.695C410.459 547.45 412.518 551.032 414.909 554.391C418.775 559.919 423.462 564.847 428.81 568.973C434.147 573.119 440.084 576.428 446.417 578.788C459.151 583.522 473.021 584.283 486.197 580.971C487.699 580.55 489.202 580.09 490.684 579.569C492.146 579.048 493.608 578.467 495.05 577.846C496.486 577.222 497.896 576.541 499.277 575.803C500.659 575.082 502.021 574.301 503.343 573.46L610.546 505.517C614.932 502.712 619.399 500.068 623.986 497.625C628.553 495.161 633.22 492.897 637.988 490.794C642.739 488.71 647.57 486.812 652.469 485.106C657.377 483.383 662.344 481.861 667.372 480.539C689.245 474.85 711.84 472.526 734.414 473.648C756.988 474.79 779.242 479.357 800.434 487.209C821.606 495.061 841.477 506.097 859.324 519.958C877.191 533.799 892.815 550.285 905.694 568.853C913.626 579.97 920.436 591.828 926.025 604.287C931.613 616.738 935.948 629.715 938.965 643.025C941.969 656.326 943.652 669.906 943.972 683.547C944.293 697.208 943.231 710.848 940.847 724.269C938.485 737.446 934.76 750.341 929.731 762.747C924.706 775.157 918.395 787.006 910.902 798.101C903.431 809.198 894.818 819.493 885.203 828.808C875.588 838.122 865.032 846.414 853.695 853.545L573.99 1031.68C569.604 1034.46 565.117 1037.08 560.55 1039.53C555.963 1041.97 551.296 1044.23 546.529 1046.32C541.781 1048.42 536.954 1050.32 532.047 1052.05C527.159 1053.77 522.192 1055.31 517.184 1056.65" fill="white"/>
</svg>
