<svg width="1200" height="1200" viewBox="0 0 1200 1200" fill="none" xmlns="http://www.w3.org/2000/svg">
<path d="M0 600V0H1200V1200H0" fill="#7589F0"/>
<path d="M263.1 602.1V651H419.1V1095H529.8V651H685.8V603C685.8 576 685.8 554.1 684.6 553.5C684.6 552.6 589.5 552.3 474 552.3L264 553.2V602.4L263.1 602.1ZM964.2 552C994.8 559.2 1018.2 573 1039.2 594.9C1050.3 606.9 1066.8 627.9 1068 633.3C1068 635.1 1016.1 670.2 984.6 689.7C983.4 690.6 978.6 685.5 973.8 677.7C958.2 655.5 942.3 645.9 917.4 644.1C881.4 641.7 857.4 660.6 857.4 692.1C857.4 701.7 859.2 707.1 862.8 714.9C870.9 731.4 885.9 741.3 932.4 761.7C1018.2 798.6 1055.4 822.9 1077.9 857.7C1103.4 896.7 1109.1 957.9 1092 1003.8C1072.8 1053.9 1026 1087.8 959.1 1098.9C938.1 1102.5 890.1 1101.9 867.6 1098C819.6 1089 773.7 1065 745.5 1034.1C734.4 1022.1 713.1 990 714.3 987.9L725.7 980.7L770.7 954.6L804.6 934.8L812.4 945.3C822.3 960.9 844.5 981.9 857.4 989.1C896.4 1009.2 948.6 1006.5 974.4 983.1C985.5 972.9 990.3 962.1 990.3 947.1C990.3 933.3 988.2 927 981.3 916.5C971.7 903.3 952.5 892.5 898.5 868.5C836.4 842.1 810 825.3 785.4 799.5C771.3 783.9 758.4 759.6 752.4 739.5C747.9 722.1 746.4 679.5 750.6 662.4C763.5 602.4 808.8 560.4 873.6 548.4C894.6 544.2 944.1 546 964.8 551.4L964.2 552Z" fill="white"/>
</svg>
